# xmcd
#
# Track frame offsets:
#	225
#	17882
#	33432
#	51300
#	66410
#	80937
#	96105
#	109872
#	124625
#	136792
#	157762
#	172492
#	190675
#	203280
#	212147
#	225945
#	238462
#	254675
#	267477
#	276282
#	291802
#	307227
#	320832
#	332177
#
# Disc length: 4564 seconds
#
# Revision: 0
# Processed by: cddbd v1.5.1PL0 Copyright (c) Steve Scherf et al.
# Submitted via: dBpowerAMP V4.0
#
DISCID=7811d118
DTITLE=Various Artist - Wide Country
DYEAR=1995
DGENRE=Country
TTITLE0=Country Music - Country Corner
TTITLE1=Send A Message To My Heart - Country Corner
TTITLE2=Mann, Oh Mann - Country Corner
TTITLE3=I Don't Wanna Be Alone Tonight - Country Corner
TTITLE4=Mightfall In Love Again - Country Corner
TTITLE5=Fire On The Mountain - Country Corner
TTITLE6=San Antonio Rose - Country Corner
TTITLE7=Turn It On, Turn It Up - Country Corner
TTITLE8=Your Cheatin' Heart - Country Corner
TTITLE9=Yagge-De-Raider - Country Corner
TTITLE10=Good Hearted Woman - Hot Wheels
TTITLE11=Country Roads - Hot Wheels
TTITLE12=I Pity The Mother And The Father - Hot Wheels
TTITLE13=Sundown - Hot Wheels
TTITLE14=Wreck Of The Old '97 - Hot Wheels
TTITLE15=Red River Valley - Hot Wheels
TTITLE16=I Shall Be Released - Hot Wheels
TTITLE17=Coal Tattoo - Hot Wheels
TTITLE18=Whisky In The Jar - Hot Wheels
TTITLE19=The Bug - Digger's Claim
TTITLE20=A Road Is Just A Road - Digger's Claim
TTITLE21=Home Sweet Highway - Digger's Claim
TTITLE22=That's What I Like About You - Digger's Claim
TTITLE23=Breakin' New Ground - Digger's Claim
EXTD=
EXTT0=
EXTT1=
EXTT2=
EXTT3=
EXTT4=
EXTT5=
EXTT6=
EXTT7=
EXTT8=
EXTT9=
EXTT10=
EXTT11=
EXTT12=
EXTT13=
EXTT14=
EXTT15=
EXTT16=
EXTT17=
EXTT18=
EXTT19=
EXTT20=
EXTT21=
EXTT22=
EXTT23=
PLAYORDER=
